<svg data-name="yiqihe.org" xmlns="http://www.w3.org/2000/svg" viewBox="0 0 4320 1800"><defs><linearGradient id="a" x1="1901.69" y1="702.48" x2="1901.69" y2="701.73" gradientTransform="matrix(2880 0 0 -1323 -5475858 929386.71)" gradientUnits="userSpaceOnUse"><stop offset="0" stop-color="#f8fbff" stop-opacity="0"/><stop offset="1" stop-color="#f8fbff"/></linearGradient><linearGradient id="b" x1="1901.45" y1="702.22" x2="1901.98" y2="702.71" gradientTransform="matrix(2880 0 0 -1063 -5475858 746735.69)" gradientUnits="userSpaceOnUse"><stop offset="0" stop-color="#f8fbff" stop-opacity="0"/><stop offset="1" stop-color="#d3ddec"/></linearGradient><linearGradient id="c" x1="1128.78" y1="360.55" x2="229.18" y2="360.55" gradientUnits="userSpaceOnUse"><stop offset="0" stop-color="#d3ddec" stop-opacity="0"/><stop offset="1" stop-color="#d3ddec" stop-opacity=".48"/></linearGradient></defs><path d="M-437 0h2880v275L-437 1323z" fill="url(#a)" fill-rule="evenodd"/><path d="M-437.85 0h2880l-2880 1063z" fill="url(#b)" fill-rule="evenodd"/><path fill="url(#c)" fill-rule="evenodd" d="M-437.95 0v721.1L1537.08 0H-437.95z"/><path d="M637.61 983.64l-6.07 87.36 563.26-205 6.08-87.35z" fill="#ffa695" fill-rule="evenodd"/><path d="M497.61 894.64L491.54 982l563.26-205 6.08-87.35z" fill="#ffe4df" fill-rule="evenodd"/><path d="M2327.51 148.68L2321.4 236l326.08-118.68 6.1-87.36z" fill="#d3ddec" fill-rule="evenodd"/><path d="M3441.22 1191.16l-11.28 161.37 347.15-126.36 11.29-161.36z" fill="#d2f1ff" fill-rule="evenodd"/><path d="M2885.13 1151.84l-11.22 161.35 1040.45-378.7 11.22-161.34z" fill="#55c3f5" fill-rule="evenodd"/><path d="M3289.69 758.2l-11.22 161.34 1040.46-378.69 11.22-161.35z" fill="#4346de" fill-rule="evenodd"/><path d="M2645.09 753.38l-11.28 161.37L2981 788.39 2992.25 627z" fill="#e0e1ff" fill-rule="evenodd"/><path d="M2719.89 1103.53l19.81-56.6-55.43 17.25a3.79 3.79 0 00-2.46 2.38l-19.18 54.79z" fill-opacity=".8" fill="#d3ddec"/><path d="M2778.21 1111.65l-13.76 38.79-45-46.58 20-56.39 43.35 44.89a3.78 3.78 0 01.85 3.91l-5.46 15.38z" fill-opacity=".48" fill="#d3ddec"/><path d="M2764.83 1150.07l-54.94 17.36a3.8 3.8 0 01-3.75-1l-43.35-44.88 57.06-18 45 46.58z" fill="#f8fbff"/></svg>