<svg width="193" height="112" xmlns="http://www.w3.org/2000/svg"><g fill="#000" fill-rule="evenodd"><path d="M42.359 0L37.32 15.479h6.24L48.6 0h-6.241zm-30.36 0l4.921 15.479h6.24L18.24 0h-6.241zM1.44 25.559h57.721v-6.24H1.44v6.24zm36.479 5.28L47.64 56.16H54l-9.84-25.321h-6.241zm-20.759 0L6.959 56.16h6.601l10.2-25.321h-6.6zM6.48 62.4v42.36H0v6.36h60.599v-6.36H54V62.4H6.48zm33.959 42.36h7.201V68.639h-7.201v36.121zm-14.039 0h7.68V68.639H26.4v36.121zm-13.561 0h7.2V68.639h-7.2v36.121zM83.158.48l-14.64 40.8h6.6l12.36-34.44h18.84l11.639 34.44h6.6L110.878.48h-27.72zm12.36 24.48v80.16h-11.88V48.24h-6.36v56.88h-9.6v6.36h57.36v-6.36h-23.16V58.08h17.88v-6.24h-17.88V24.96h-6.36zM156.957 32.04h32.04V.96h-32.04v31.08zm6.36-18.72h19.44V7.2h-19.44v6.12zm0 12.48h19.44v-6.24h-19.44v6.24zm-31.44 81.36h18.72V4.68h-18.72v102.48zm6.36-6.24h6.12v-90h-6.12v90zm17.88-65.88l-3.12 13.68h33.48v54.92h-5.64v6.84h12.002V42.36h-32.16l1.679-7.32h-6.24zm14.28 16.56v12.96l-7.32 22.2h6.12l4.2-13.08 3.72 13.08h6.36l-6.6-22.2V51.6h-6.48zm-15.72 6.36v39.48h26.16V91.2h-19.8V57.96h-6.36z"/></g></svg>