<svg width="348" height="135" xmlns="http://www.w3.org/2000/svg" xmlns:xlink="http://www.w3.org/1999/xlink"><defs><path id="a" d="M0 0h104v128H0z"/></defs><g fill="none" fill-rule="evenodd"><path d="M69.706 124.683h9.201v-34.75h-9.201v34.75zM65.524 42.94c2.878 1.596 5.993 3.495 9.34 5.698a217.607 217.607 0 0110.037 7.035 282.058 282.058 0 019.69 7.527c3.112 2.532 5.83 4.878 8.155 7.034l-9.76 10.834c-1.86-2.533-4.09-5.297-6.69-8.301a243.803 243.803 0 00-8.225-9.004c-2.883-3-5.74-5.886-8.574-8.653-2.837-2.766-5.368-5.135-7.598-7.105l3.625-5.065zm-17.985 81.742h8.923v-34.75h-8.923v34.75zm-22.446 0h9.201v-34.75h-9.201v34.75zM24.118 3.126c1.394.937 2.973 2.18 4.74 3.728a131.24 131.24 0 015.436 5.065 100.177 100.177 0 015.298 5.627 121.125 121.125 0 014.462 5.417l-10.456 8.441c-2.14-4.876-4.346-9.237-6.622-13.084-2.28-3.844-4.67-7.55-7.18-11.114l4.322-4.08zm60.3 5.522c-3.06 5.782-7.069 10.893-9.904 14.456a106.246 106.246 0 01-8.852 9.848h35.272v7.316H3.066v-7.316H56.46c3.068-3.94 5.948-8.557 8.643-13.858C67.8 13.796 70.264 8.098 72.494 2l11.923 6.648zM43.45 50.64c-3.603 4.94-6.81 7.87-9.644 10.59a239.295 239.295 0 01-9.13 8.3 188.63 188.63 0 01-9.829 7.951c-3.3 2.486-6.343 4.385-9.131 5.697l-3.764-5.206c2.415-1.688 5.087-3.939 8.015-6.753a135.493 135.493 0 008.643-9.145 182.053 182.053 0 008.087-10.06c2.555-3.423 4.67-6.541 6.344-9.355l10.409 7.98zM0 124.683h11.85V82.616h80.301v42.067H104V132H0v-7.317zM166.14 118.596h40.203V82.547H166.14v36.05zm40.203 7.322H166.14v7.323h-13.356V75.225h66.91v58.016h-13.351v-7.323zm-63-76.18h62.719V23.546h-62.72v26.192zm62.719 7.322h-69.063V16.224h82.417v48.3h-13.354V57.06zm-18.83-44.152h-15.229L164.975 0h15.228l7.029 12.908z" fill="#ffffff"/><path d="M146.458 57.06V74.52c0 5.633-.446 11.36-1.334 17.18-.892 5.822-2.134 11.405-3.726 16.756-1.596 5.351-3.563 10.28-5.903 14.786-2.343 4.506-4.923 8.26-7.732 11.265L122 130.706c1.874-3.661 3.514-7.604 4.919-11.828 1.406-4.224 2.554-8.87 3.444-13.941.89-5.07 1.57-10.632 2.038-16.685.469-6.057.703-12.745.703-20.068v-51.96h-4.234l17.588-12.209V57.06z" fill="#4069FF"/><g transform="translate(244 7)"><mask id="b" fill="#fff"><use xlink:href="#a"/></mask><path d="M79.47 74.284c-1.249 4.992-3.166 8.712-3.166 8.712 2.114 2.018 4.203 4.42 6.268 7.204 2.065 2.787 3.768 5.573 5.115 8.358l-10.228 7.348a99.806 99.806 0 00-2.02-7.42 70.49 70.49 0 00-2.74-7.277 89.209 89.209 0 01-4.32 7.925c-1.538 2.499-3.123 4.755-4.754 6.772l-5.619-3.314c2.018-4.321 3.745-9.294 5.186-14.913a163.001 163.001 0 003.457-17.507l12.82 4.112zM56.754 39.192h29.385V26.945H56.754v12.247zm-.001-19.452h29.385V7.493H56.753V19.74zM55.456 80.98v27.52h30.826v7.493H55.456v4.755h-13.54V80.98h13.54zM86.14 46.686H56.753v2.306l6.6 3.53c-1.199 2.346-4.042 6.489-5.078 7.852H104V128H86.813l-2.4-7.493h5.902v-52.64H52.433c-1.635 2.21-3.314 4.178-5.043 5.907a91.562 91.562 0 01-5.474 5.043l-5.473-4.755c2.207-2.882 4.344-6.239 6.41-10.074 2.064-3.836 3.96-8.15 5.69-12.943h-5.474V0h56.753v51.441H86.139v-4.755zM13.685 97.693h7.49V19.884h-7.49v77.81zm7.49 7.493h-7.49v6.628H0V12.536h34.858v99.278H21.175v-6.628z" fill="#ffffff" mask="url(#b)"/></g></g></svg>